<svg width="101" height="24" viewBox="0 0 101 24" fill="none" xmlns="http://www.w3.org/2000/svg">
<path d="M13.3726 23.9416C10.7526 24.178 8.0373 23.6832 5.77314 22.3277C4.81345 21.7528 3.96095 21.0174 3.20702 20.1932C2.96474 19.9281 2.14876 18.999 2.02075 18.7289C1.94653 18.5726 2.01722 18.5102 2.17625 18.5133C3.33935 18.5361 4.28412 19.1345 5.27759 19.6615C6.38257 20.2473 7.55941 20.5049 8.76139 20.0443C9.7898 19.6501 10.863 19.2802 11.9334 19.0143C12.965 18.7583 14.2514 18.5773 15.2719 18.9857C15.8315 19.1549 16.3078 19.4789 16.92 19.5366C17.8337 19.6234 18.449 19.3183 19.2827 19.1098C20.0853 18.9087 20.97 18.6036 21.8001 18.8294C21.8347 18.9295 21.8084 19.0426 21.7554 19.1341C21.6101 19.3835 21.3458 19.5719 21.1561 19.7867C20.9131 20.0616 20.6598 20.3271 20.3963 20.5827C19.8666 21.0959 19.2964 21.5683 18.6901 21.9885C17.5 22.8131 16.1181 23.494 14.6853 23.761C14.2521 23.8415 13.8139 23.9023 13.3726 23.942V23.9416Z" fill="#30A8C3"/>
<path d="M13.232 0.0646858C14.7371 0.221362 16.2108 0.662334 17.5871 1.38053C19.801 2.53578 21.6367 4.37074 22.7543 6.60741C24.1982 9.49827 24.3639 12.838 23.3708 15.8965C23.1132 16.6901 22.7759 17.4636 22.3263 18.1681C22.2195 18.3354 22.0919 18.6004 21.8555 18.4669L21.8625 18.3727C23.6861 15.4406 24.2516 11.9678 23.2314 8.63007C20.688 0.308143 10.378 -2.52853 3.9515 3.46484C0.000808883 7.14969 -0.899985 13.3296 1.9257 17.9788L1.82439 18.1406C1.54402 18.1143 1.49768 17.7939 1.39362 17.607C0.326728 15.6844 -0.0270709 13.4407 0.00159432 11.2665C0.0184793 10.0005 0.432357 8.6175 0.905922 7.4493C1.37163 6.30034 2.01091 5.22206 2.80254 4.26747C4.39758 2.34376 6.59184 0.970976 9.01621 0.366652C10.4133 0.0183504 11.836 -0.0806033 13.232 0.0646858Z" fill="#30A8C3"/>
<path d="M15.5096 12.1001C17.4129 13.4811 18.9762 14.6729 21.417 14.9215C21.5439 14.9344 21.8655 14.8822 21.9471 14.9592C21.9789 14.9969 21.9896 15.0401 21.9943 15.088C22.0488 15.646 21.2961 17.7283 20.9776 18.2337C20.9403 18.293 20.8842 18.3373 20.8355 18.386L20.5787 18.3691L20.561 18.2906C20.7558 17.715 20.8912 17.1208 20.925 16.5122L18.6173 16.2267L18.5784 16.1674C18.8116 15.0518 17.634 13.1513 16.4089 14.1758C15.4559 14.9725 15.4653 17.25 16.7242 17.7668L16.754 17.8563L16.6845 17.9258C15.3428 17.936 14.9057 16.2216 15.1928 15.1551L13.8958 14.528L13.7473 13.425C12.7067 10.4595 9.87556 11.6815 9.91915 14.519C9.92936 15.1744 10.1944 16.0567 10.6268 16.5601C10.8785 16.8534 11.2385 17.0301 11.5688 17.1888L11.5696 17.2481C10.8494 17.2437 10.3055 17.1432 9.81313 16.5884C8.88249 15.5388 8.87189 13.48 9.75973 12.3946L9.7342 12.289C9.26064 12.0522 8.78511 11.808 8.29348 11.6097C6.98391 11.0811 5.61505 10.7309 4.19554 10.7383C3.66818 11.0792 3.2916 11.6069 2.95312 12.1268C2.89108 12.2222 2.65076 12.7178 2.62484 12.741C2.58911 12.7728 2.5573 12.7861 2.50861 12.7826L2.46306 12.748C2.21018 10.822 2.6916 8.44826 4.14842 7.07861C4.3852 7.06879 4.62826 7.05584 4.86505 7.06762C9.29244 7.28634 12.1232 9.64316 15.5096 12.1005V12.1001Z" fill="#30A8C3"/>
<path d="M13.8738 4.626C15.3601 5.79813 16.7455 7.13401 18.1234 8.41648C18.1194 8.72198 18.2604 9.76884 17.724 9.20693C17.6302 9.21557 17.6486 9.75903 17.636 9.86466C17.5163 10.8644 17.3808 11.863 17.3015 12.8678L17.2296 12.9738L17.1464 12.9672C17.0309 12.8278 16.8644 12.845 16.8495 12.6338C16.8 11.9309 17.0761 10.6457 17.1456 9.88468C17.1778 9.53206 17.1947 9.17002 17.2135 8.81622C17.1715 8.69567 17.0364 8.66818 16.9787 8.6191C16.5495 8.25234 16.0948 7.93074 15.6546 7.58715C13.5487 5.94381 11.3089 3.90309 8.43845 4.06409C7.27613 4.12927 6.04156 4.6688 6.16997 6.03609L6.05374 6.1158C5.40818 5.51894 5.2947 4.40257 5.77062 3.67298C6.40204 2.70465 7.87928 2.46119 8.94853 2.51303C10.8404 2.60413 12.4272 3.48411 13.8746 4.62561L13.8738 4.626Z" fill="#30A8C3"/>
<path d="M17.1221 3.57909C18.1278 3.44479 19.7715 3.83747 20.4241 4.66326C20.9649 5.34769 20.763 6.04115 20.6813 6.82453C20.4296 9.23986 19.7766 11.6183 19.3906 14.0156L19.2913 14.1326L18.9304 13.9908C18.897 13.9366 18.9123 13.8389 18.9151 13.7756C18.9712 12.5124 19.5889 10.9523 19.6832 9.65492L20.0283 7.75006C19.0258 6.84888 17.7037 6.44678 16.3851 6.3066L15.3394 5.32962C15.3312 5.27465 15.341 5.224 15.3571 5.17177C15.6151 4.32752 16.217 3.70042 17.1218 3.57948L17.1221 3.57909Z" fill="#30A8C3"/>
<path d="M8.34666 4.61974C8.93293 4.59383 10.6615 4.75953 10.9175 5.37407C11.0259 5.63441 11.0506 6.97853 11.0604 7.35157C11.0703 7.72461 11.0632 8.1216 11.0518 8.50289L10.9167 8.51624C9.56395 7.70419 8.01132 7.17722 6.45987 6.88664L6.35777 6.7924C6.1257 5.38074 7.0422 4.67746 8.34627 4.61974H8.34666Z" fill="#30A8C3"/>
<path d="M4.06366 11.2735L4.20581 11.3391C4.26118 13.0543 4.5549 14.8072 5.07166 16.4419C5.43056 17.5767 5.92926 18.7457 6.59916 19.7262L6.54379 19.8016C6.04981 19.6822 5.70425 19.5075 5.37402 19.1238C4.31929 17.8995 3.35607 15.9542 3.00776 14.3827C2.95122 14.1282 2.81378 13.3798 2.83774 13.1497C2.8558 12.9761 3.27517 12.252 3.39415 12.0765C3.45777 11.9823 4.01379 11.2872 4.06406 11.2735H4.06366Z" fill="#30A8C3"/>
<path d="M11.7012 5.69795C11.7895 5.67635 11.8563 5.69481 11.9368 5.72858C12.1661 5.82557 12.684 6.27243 12.9138 6.4401C13.257 6.69024 13.6881 6.86733 13.8947 7.2655C13.8004 8.15687 13.9123 9.16879 13.8279 10.0433C13.8212 10.1143 13.8146 10.2875 13.7345 10.3048L11.5975 8.8362L11.5488 5.85973C11.5539 5.79494 11.6454 5.71209 11.7012 5.69834V5.69795Z" fill="#30A8C3"/>
<path d="M15.8622 12.0616C15.5135 11.8068 14.7277 11.2943 14.4662 11.0136C14.4297 10.9743 14.4038 10.897 14.3983 10.8443C14.3759 10.6299 14.4745 9.06395 14.52 8.85034C14.7815 7.62088 16.1983 8.21892 16.4571 9.21906C16.5482 10.2298 16.3326 11.2476 16.258 12.2572C16.1794 12.3789 15.9242 12.1072 15.8622 12.062V12.0616ZM15.433 8.89785C15.0336 9.051 14.8832 9.66553 14.9256 10.0437C14.9343 10.1226 15.0423 10.5137 15.076 10.5805C15.1153 10.6578 15.3796 10.8946 15.4667 10.8977C16.2521 10.7336 16.2599 8.98542 15.433 8.89785Z" fill="#30A8C3"/>
<path d="M12.5987 15.4586C12.3666 15.708 12.0069 15.898 11.692 15.6534C11.6567 15.4783 11.8279 15.4201 11.9115 15.2721C12.2618 14.6521 12.1852 13.8408 11.6724 13.3362L11.7458 13.1827C12.978 12.9761 13.2776 14.7283 12.5983 15.4586H12.5987Z" fill="#30A8C3"/>
<path d="M16.9934 16.6535C17.1944 16.4827 17.3279 16.2271 17.2788 15.9565L16.5697 15.6891C16.5453 15.6554 16.5516 15.5831 16.5614 15.5442C16.6938 15.0318 17.2667 14.7353 17.6751 15.1869C18.147 15.7092 17.9095 16.9661 17.0703 16.8322L16.9934 16.6531V16.6535Z" fill="#30A8C3"/>
<path d="M36.428 19V8.758H32.486V6.76H42.8V8.758H38.858V19H36.428ZM49.2865 14.95V9.352H51.5905V19H49.2865V17.704C48.6565 18.766 47.6665 19.27 46.4785 19.27C44.5705 19.27 43.2925 18.118 43.2925 15.796V9.352H45.5965V15.328C45.5965 16.642 46.1365 17.362 47.2705 17.362C48.5125 17.362 49.2865 16.246 49.2865 14.95ZM57.2263 19.036C54.7783 19.036 53.2663 17.146 53.2663 14.068C53.2663 10.864 54.8143 9.082 57.2263 9.082C58.3783 9.082 59.2783 9.514 59.8723 10.324V9.352H62.1763V19.306C62.1763 21.916 60.3763 23.248 57.9823 23.248C55.6063 23.248 53.8783 22.15 53.5363 19.864H55.8583C56.0023 20.89 56.8303 21.43 57.9463 21.43C59.0983 21.43 59.8723 20.872 59.8723 19.342V17.722C59.2423 18.586 58.3423 19.036 57.2263 19.036ZM57.7483 17.128C59.1343 17.128 59.8723 16.048 59.8723 14.068C59.8723 12.106 59.0983 10.99 57.7483 10.99C56.3803 10.99 55.6423 12.07 55.6423 14.068C55.6423 16.03 56.3803 17.128 57.7483 17.128ZM66.6023 19H64.2983V6.04H66.6023V10.432C67.2143 9.568 68.0783 9.082 69.1403 9.082C71.6423 9.082 73.1903 11.008 73.1903 14.158C73.1903 17.434 71.6063 19.27 69.1403 19.27C68.0783 19.27 67.1963 18.82 66.6023 17.974V19ZM68.7263 10.99C67.3403 10.99 66.6023 12.106 66.6023 14.158C66.6023 16.21 67.3583 17.362 68.7263 17.362C70.0943 17.362 70.8323 16.228 70.8323 14.158C70.8323 12.124 70.0763 10.99 68.7263 10.99ZM79.0388 19.27C76.1768 19.27 74.4128 17.344 74.4128 14.194C74.4128 10.918 76.2308 9.082 79.0388 9.082C81.8828 9.082 83.6468 11.026 83.6468 14.194C83.6468 17.434 81.8288 19.27 79.0388 19.27ZM79.0388 17.362C80.4968 17.362 81.2708 16.246 81.2708 14.194C81.2708 12.142 80.4788 10.99 79.0388 10.99C77.5628 10.99 76.7888 12.124 76.7888 14.194C76.7888 16.228 77.5808 17.362 79.0388 17.362ZM87.5538 12.52H85.2318C85.5378 10.378 87.1038 9.082 89.5338 9.082C92.2158 9.082 93.5838 10.666 93.5838 12.898V16.642C93.5838 17.83 93.6918 18.496 93.8718 19H91.4778C91.3518 18.676 91.2978 18.208 91.2798 17.686C90.4878 18.802 89.2998 19.27 88.1478 19.27C86.2578 19.27 84.9078 18.334 84.9078 16.48C84.9078 15.166 85.6458 14.176 87.1218 13.69C88.3998 13.258 89.6418 13.15 91.2618 13.132V12.898C91.2618 11.656 90.6678 10.99 89.3898 10.99C88.2918 10.99 87.6978 11.602 87.5538 12.52ZM87.2298 16.354C87.2298 17.092 87.8058 17.56 88.7418 17.56C90.1638 17.56 91.2618 16.408 91.2618 14.968V14.554C87.9858 14.608 87.2298 15.382 87.2298 16.354ZM96.0868 15.994V11.134H94.8448V9.352H96.0868V7.138H98.3908V9.352H100.425V11.134H98.3908V15.796C98.3908 16.804 98.6788 17.344 99.9568 17.344H100.389V19.036C100.137 19.162 99.6148 19.27 98.9848 19.27C97.0228 19.27 96.0868 18.154 96.0868 15.994Z" fill="#111827"/>
</svg>
