<svg width="24" height="24" viewBox="0 0 24 24" fill="none" xmlns="http://www.w3.org/2000/svg">
<path d="M21.25 9.38769C21.25 7.77556 20.1121 6.38748 18.5313 6.07129L18.3955 6.04394C17.2128 5.8074 16.172 5.11098 15.5029 4.10742C14.9377 3.25963 13.9867 2.75008 12.9678 2.75L11.0322 2.75C10.0133 2.75008 9.06228 3.25963 8.49708 4.10742C7.82803 5.11098 6.78721 5.8074 5.6045 6.04394L5.46876 6.07129C3.88793 6.38748 2.75 7.77556 2.75 9.38769L2.75 14C2.75 15.4123 2.75041 16.4266 2.81543 17.2227C2.87977 18.01 3.00326 18.5183 3.2129 18.9297C3.62035 19.7293 4.27067 20.3797 5.07032 20.7871C5.48175 20.9967 5.98997 21.1202 6.77735 21.1846C7.57344 21.2496 8.58766 21.25 10 21.25L14 21.25C15.4124 21.25 16.4266 21.2496 17.2227 21.1846C18.01 21.1202 18.5183 20.9967 18.9297 20.7871C19.7293 20.3797 20.3797 19.7293 20.7871 18.9297C20.9967 18.5183 21.1202 18.01 21.1846 17.2227C21.2496 16.4266 21.25 15.4123 21.25 14L21.25 9.38769ZM15.25 13C15.25 11.2051 13.7949 9.75 12 9.75C10.2051 9.75 8.75001 11.2051 8.75001 13C8.75001 14.7949 10.2051 16.25 12 16.25C13.7949 16.25 15.25 14.7949 15.25 13ZM16.75 13C16.75 15.6234 14.6234 17.75 12 17.75C9.37665 17.75 7.25001 15.6234 7.25001 13C7.25001 10.3766 9.37665 8.25 12 8.25C14.6234 8.25 16.75 10.3766 16.75 13ZM22.75 14C22.75 15.3876 22.7509 16.4734 22.6797 17.3447C22.6078 18.2249 22.4584 18.9522 22.1231 19.6103C21.5718 20.6923 20.6923 21.5718 19.6104 22.123C18.9522 22.4584 18.2249 22.6078 17.3447 22.6797C16.4734 22.7508 15.3876 22.75 14 22.75L10 22.75C8.61244 22.75 7.5266 22.7508 6.65528 22.6797C5.77514 22.6078 5.04778 22.4584 4.38965 22.123C3.30774 21.5718 2.42823 20.6923 1.87696 19.6103C1.54162 18.9522 1.39223 18.2249 1.32032 17.3447C1.24915 16.4734 1.25 15.3876 1.25 14L1.25 9.38769C1.25 7.06051 2.89282 5.05698 5.17481 4.60059L5.31055 4.57324C6.10311 4.4147 6.80068 3.94791 7.24903 3.27539C8.09243 2.0103 9.51179 1.25009 11.0322 1.25L12.9678 1.25C14.4882 1.25009 15.9076 2.0103 16.751 3.27539C17.1993 3.94791 17.8969 4.4147 18.6895 4.57324L18.8252 4.60059C21.1072 5.05698 22.75 7.06051 22.75 9.38769L22.75 14Z" fill="#2F384C"/>
</svg>
