<svg width="24" height="24" viewBox="0 0 24 24" fill="none" xmlns="http://www.w3.org/2000/svg">
<path d="M12.4697 3.46973C12.7626 3.17684 13.2373 3.17684 13.5302 3.46973C13.8231 3.76262 13.8231 4.23738 13.5302 4.53028L6.06049 12L13.5302 19.4697C13.8231 19.7626 13.8231 20.2374 13.5302 20.5303C13.2373 20.8232 12.7626 20.8232 12.4697 20.5303L4.46967 12.5303C4.17678 12.2374 4.17678 11.7626 4.46967 11.4697L12.4697 3.46973ZM15.4697 7.46973C15.7626 7.17684 16.2373 7.17684 16.5302 7.46973C16.8231 7.76262 16.8231 8.23738 16.5302 8.53028L13.0605 12L16.5302 15.4697C16.8231 15.7626 16.8231 16.2374 16.5302 16.5303C16.2373 16.8232 15.7626 16.8232 15.4697 16.5303L11.4697 12.5303C11.1768 12.2374 11.1768 11.7626 11.4697 11.4697L15.4697 7.46973Z" fill="#111827"/>
</svg>
