<svg width="24" height="24" viewBox="0 0 24 24" fill="none" xmlns="http://www.w3.org/2000/svg">
<path d="M9.25 17.2002C9.25 16.6278 9.24976 16.2431 9.22559 15.9473C9.20213 15.6603 9.15942 15.5232 9.11329 15.4326C8.99346 15.1975 8.8025 15.0065 8.56739 14.8867C8.47685 14.8406 8.33974 14.7979 8.05274 14.7744C7.75686 14.7502 7.37224 14.75 6.79981 14.75H5.2002C4.62777 14.75 4.24315 14.7502 3.94727 14.7744C3.66027 14.7979 3.52316 14.8406 3.43262 14.8867C3.19751 15.0065 3.00655 15.1975 2.88672 15.4326C2.84059 15.5232 2.79788 15.6603 2.77442 15.9473C2.75024 16.2431 2.75 16.6278 2.75 17.2002V18.7998C2.75 19.3722 2.75024 19.7569 2.77442 20.0527C2.79788 20.3397 2.84059 20.4768 2.88672 20.5674C3.00655 20.8025 3.19751 20.9935 3.43262 21.1133C3.52316 21.1594 3.66027 21.2021 3.94727 21.2256C4.24315 21.2498 4.62777 21.25 5.2002 21.25H6.79981C7.37224 21.25 7.75686 21.2498 8.05274 21.2256C8.33974 21.2021 8.47685 21.1594 8.56739 21.1133C8.8025 20.9935 8.99346 20.8025 9.11329 20.5674C9.15942 20.4768 9.20213 20.3397 9.22559 20.0527C9.24976 19.7569 9.25 19.3722 9.25 18.7998V17.2002ZM21.25 17.2002C21.25 16.6278 21.2498 16.2431 21.2256 15.9473C21.2021 15.6603 21.1594 15.5232 21.1133 15.4326C20.9935 15.1975 20.8025 15.0065 20.5674 14.8867C20.4768 14.8406 20.3397 14.7979 20.0527 14.7744C19.7569 14.7502 19.3722 14.75 18.7998 14.75H17.2002C16.6278 14.75 16.2431 14.7502 15.9473 14.7744C15.6603 14.7979 15.5232 14.8406 15.4326 14.8867C15.1975 15.0065 15.0065 15.1975 14.8867 15.4326C14.8406 15.5232 14.7979 15.6603 14.7744 15.9473C14.7502 16.2431 14.75 16.6278 14.75 17.2002V18.7998C14.75 19.3722 14.7502 19.7569 14.7744 20.0527C14.7979 20.3397 14.8406 20.4768 14.8867 20.5674C15.0065 20.8025 15.1975 20.9935 15.4326 21.1133C15.5232 21.1594 15.6603 21.2021 15.9473 21.2256C16.2431 21.2498 16.6278 21.25 17.2002 21.25H18.7998C19.3722 21.25 19.7569 21.2498 20.0527 21.2256C20.3397 21.2021 20.4768 21.1594 20.5674 21.1133C20.8025 20.9935 20.9935 20.8025 21.1133 20.5674C21.1594 20.4768 21.2021 20.3397 21.2256 20.0527C21.2498 19.7569 21.25 19.3722 21.25 18.7998V17.2002ZM9.25 5.2002C9.25 4.62777 9.24976 4.24315 9.22559 3.94727C9.20213 3.66027 9.15942 3.52316 9.11329 3.43262C8.99346 3.19751 8.8025 3.00655 8.56739 2.88672C8.47685 2.84059 8.33974 2.79788 8.05274 2.77442C7.75686 2.75024 7.37224 2.75 6.79981 2.75H5.2002C4.62777 2.75 4.24315 2.75024 3.94727 2.77442C3.66027 2.79788 3.52316 2.84059 3.43262 2.88672C3.19751 3.00655 3.00655 3.19751 2.88672 3.43262C2.84059 3.52316 2.79788 3.66027 2.77442 3.94727C2.75024 4.24315 2.75 4.62777 2.75 5.2002V6.79981C2.75 7.37224 2.75024 7.75686 2.77442 8.05274C2.79788 8.33974 2.84059 8.47685 2.88672 8.56739C3.00655 8.8025 3.19751 8.99346 3.43262 9.11329C3.52316 9.15942 3.66027 9.20213 3.94727 9.22559C4.24315 9.24976 4.62777 9.25 5.2002 9.25H6.79981C7.37224 9.25 7.75686 9.24976 8.05274 9.22559C8.33974 9.20213 8.47685 9.15942 8.56739 9.11329C8.8025 8.99346 8.99346 8.8025 9.11329 8.56739C9.15942 8.47685 9.20213 8.33974 9.22559 8.05274C9.24976 7.75686 9.25 7.37224 9.25 6.79981V5.2002ZM21.25 5.2002C21.25 4.62777 21.2498 4.24315 21.2256 3.94727C21.2021 3.66027 21.1594 3.52316 21.1133 3.43262C20.9935 3.19751 20.8025 3.00655 20.5674 2.88672C20.4768 2.84059 20.3397 2.79788 20.0527 2.77442C19.7569 2.75024 19.3722 2.75 18.7998 2.75H17.2002C16.6278 2.75 16.2431 2.75024 15.9473 2.77442C15.6603 2.79788 15.5232 2.84059 15.4326 2.88672C15.1975 3.00655 15.0065 3.19751 14.8867 3.43262C14.8406 3.52316 14.7979 3.66027 14.7744 3.94727C14.7502 4.24315 14.75 4.62777 14.75 5.2002V6.79981C14.75 7.37224 14.7502 7.75686 14.7744 8.05274C14.7979 8.33974 14.8406 8.47685 14.8867 8.56739C15.0065 8.8025 15.1975 8.99346 15.4326 9.11329C15.5232 9.15942 15.6603 9.20213 15.9473 9.22559C16.2431 9.24976 16.6278 9.25 17.2002 9.25H18.7998C19.3722 9.25 19.7569 9.24976 20.0527 9.22559C20.3397 9.20213 20.4768 9.15942 20.5674 9.11329C20.8025 8.99346 20.9935 8.8025 21.1133 8.56739C21.1594 8.47685 21.2021 8.33974 21.2256 8.05274C21.2498 7.75686 21.25 7.37224 21.25 6.79981V5.2002ZM10.75 18.7998C10.75 19.3475 10.751 19.8037 10.7207 20.1748C10.6897 20.5545 10.6219 20.9109 10.4502 21.2481C10.1865 21.7655 9.7655 22.1865 9.24805 22.4502C8.91091 22.6219 8.55454 22.6897 8.17481 22.7207C7.80368 22.751 7.34749 22.75 6.79981 22.75H5.2002C4.65252 22.75 4.19633 22.751 3.8252 22.7207C3.44547 22.6897 3.0891 22.6219 2.75196 22.4502C2.23451 22.1865 1.81346 21.7655 1.54981 21.2481C1.3781 20.9109 1.31033 20.5545 1.2793 20.1748C1.24898 19.8037 1.25 19.3475 1.25 18.7998V17.2002C1.25 16.6525 1.24898 16.1963 1.2793 15.8252C1.31033 15.4455 1.3781 15.0891 1.54981 14.752C1.81346 14.2345 2.23451 13.8135 2.75196 13.5498C3.0891 13.3781 3.44547 13.3103 3.8252 13.2793C4.19633 13.249 4.65252 13.25 5.2002 13.25H6.79981C7.34749 13.25 7.80368 13.249 8.17481 13.2793C8.55454 13.3103 8.91091 13.3781 9.24805 13.5498C9.7655 13.8135 10.1865 14.2345 10.4502 14.752C10.6219 15.0891 10.6897 15.4455 10.7207 15.8252C10.751 16.1963 10.75 16.6525 10.75 17.2002V18.7998ZM22.75 18.7998C22.75 19.3475 22.751 19.8037 22.7207 20.1748C22.6897 20.5545 22.6219 20.9109 22.4502 21.2481C22.1865 21.7655 21.7655 22.1865 21.2481 22.4502C20.9109 22.6219 20.5545 22.6897 20.1748 22.7207C19.8037 22.751 19.3475 22.75 18.7998 22.75H17.2002C16.6525 22.75 16.1963 22.751 15.8252 22.7207C15.4455 22.6897 15.0891 22.6219 14.752 22.4502C14.2345 22.1865 13.8135 21.7655 13.5498 21.2481C13.3781 20.9109 13.3103 20.5545 13.2793 20.1748C13.249 19.8037 13.25 19.3475 13.25 18.7998V17.2002C13.25 16.6525 13.249 16.1963 13.2793 15.8252C13.3103 15.4455 13.3781 15.0891 13.5498 14.752C13.8135 14.2345 14.2345 13.8135 14.752 13.5498C15.0891 13.3781 15.4455 13.3103 15.8252 13.2793C16.1963 13.249 16.6525 13.25 17.2002 13.25H18.7998C19.3475 13.25 19.8037 13.249 20.1748 13.2793C20.5545 13.3103 20.9109 13.3781 21.2481 13.5498C21.7655 13.8135 22.1865 14.2345 22.4502 14.752C22.6219 15.0891 22.6897 15.4455 22.7207 15.8252C22.751 16.1963 22.75 16.6525 22.75 17.2002V18.7998ZM10.75 6.79981C10.75 7.34749 10.751 7.80368 10.7207 8.17481C10.6897 8.55454 10.6219 8.91091 10.4502 9.24805C10.1865 9.7655 9.7655 10.1865 9.24805 10.4502C8.91091 10.6219 8.55454 10.6897 8.17481 10.7207C7.80368 10.751 7.34749 10.75 6.79981 10.75H5.2002C4.65252 10.75 4.19633 10.751 3.8252 10.7207C3.44547 10.6897 3.0891 10.6219 2.75196 10.4502C2.23451 10.1865 1.81346 9.7655 1.54981 9.24805C1.3781 8.91091 1.31033 8.55454 1.2793 8.17481C1.24898 7.80368 1.25 7.34749 1.25 6.79981V5.2002C1.25 4.65252 1.24898 4.19633 1.2793 3.8252C1.31033 3.44547 1.3781 3.0891 1.54981 2.75196C1.81346 2.23451 2.23451 1.81346 2.75196 1.54981C3.0891 1.3781 3.44547 1.31033 3.8252 1.2793C4.19633 1.24898 4.65252 1.25 5.2002 1.25H6.79981C7.34749 1.25 7.80368 1.24898 8.17481 1.2793C8.55454 1.31033 8.91091 1.3781 9.24805 1.54981C9.7655 1.81346 10.1865 2.23451 10.4502 2.75196C10.6219 3.0891 10.6897 3.44547 10.7207 3.8252C10.751 4.19633 10.75 4.65252 10.75 5.2002V6.79981ZM22.75 6.79981C22.75 7.34749 22.751 7.80368 22.7207 8.17481C22.6897 8.55454 22.6219 8.91091 22.4502 9.24805C22.1865 9.7655 21.7655 10.1865 21.2481 10.4502C20.9109 10.6219 20.5545 10.6897 20.1748 10.7207C19.8037 10.751 19.3475 10.75 18.7998 10.75H17.2002C16.6525 10.75 16.1963 10.751 15.8252 10.7207C15.4455 10.6897 15.0891 10.6219 14.752 10.4502C14.2345 10.1865 13.8135 9.7655 13.5498 9.24805C13.3781 8.91091 13.3103 8.55454 13.2793 8.17481C13.249 7.80368 13.25 7.34749 13.25 6.79981V5.2002C13.25 4.65252 13.249 4.19633 13.2793 3.8252C13.3103 3.44547 13.3781 3.0891 13.5498 2.75196C13.8135 2.23451 14.2345 1.81346 14.752 1.54981C15.0891 1.3781 15.4455 1.31033 15.8252 1.2793C16.1963 1.24898 16.6525 1.25 17.2002 1.25H18.7998C19.3475 1.25 19.8037 1.24898 20.1748 1.2793C20.5545 1.31033 20.9109 1.3781 21.2481 1.54981C21.7655 1.81346 22.1865 2.23451 22.4502 2.75196C22.6219 3.0891 22.6897 3.44547 22.7207 3.8252C22.751 4.19633 22.75 4.65252 22.75 5.2002V6.79981Z" fill="#111827"/>
</svg>
