<svg width="24" height="24" viewBox="0 0 24 24" fill="none" xmlns="http://www.w3.org/2000/svg">
<path d="M1.25 15.5996V6.79981C1.25 5.97223 1.24903 5.30639 1.29297 4.76856C1.33763 4.22195 1.43287 3.74206 1.65918 3.29786C2.01871 2.59225 2.59225 2.01871 3.29785 1.65919C3.74205 1.43287 4.22195 1.33764 4.76856 1.29298C5.30639 1.24904 5.97222 1.25001 6.79981 1.25001H8.31641C9.07785 1.25001 9.59061 1.24457 10.0645 1.36427C10.8118 1.55316 11.4831 1.96789 11.9863 2.55177C12.3054 2.9221 12.5305 3.38323 12.8711 4.06446C13.128 4.57822 13.2021 4.71547 13.2891 4.81641C13.4568 5.01098 13.6806 5.14896 13.9297 5.21192C14.0589 5.24457 14.2147 5.25001 14.7891 5.25001H15.5996C16.7072 5.25001 17.5835 5.24909 18.2881 5.30665C19.0014 5.36493 19.6051 5.48683 20.1563 5.76759C21.05 6.22298 21.777 6.94999 22.2324 7.84376C22.5132 8.39487 22.6351 8.99863 22.6934 9.71192C22.7509 10.4165 22.75 11.2928 22.75 12.4004V15.5996C22.75 16.7072 22.7509 17.5835 22.6934 18.2881C22.6351 19.0014 22.5132 19.6051 22.2324 20.1563C21.777 21.05 21.05 21.777 20.1563 22.2324C19.6051 22.5132 19.0014 22.6351 18.2881 22.6934C17.5835 22.7509 16.7072 22.75 15.5996 22.75H8.40039C7.29277 22.75 6.41651 22.7509 5.71192 22.6934C4.99862 22.6351 4.39487 22.5132 3.84375 22.2324C2.94998 21.777 2.22298 21.05 1.76758 20.1563C1.48682 19.6051 1.36492 19.0014 1.30664 18.2881C1.24909 17.5835 1.25 16.7072 1.25 15.5996ZM2.75 15.5996C2.75 16.732 2.75035 17.5367 2.80176 18.166C2.85247 18.7867 2.94936 19.1711 3.10449 19.4756C3.41605 20.087 3.91305 20.584 4.52442 20.8955C4.82889 21.0507 5.21336 21.1475 5.83399 21.1982C6.46335 21.2497 7.26799 21.25 8.40039 21.25H15.5996C16.732 21.25 17.5367 21.2497 18.166 21.1982C18.7866 21.1475 19.1711 21.0507 19.4756 20.8955C20.087 20.584 20.5839 20.087 20.8955 19.4756C21.0506 19.1711 21.1475 18.7867 21.1982 18.166C21.2497 17.5367 21.25 16.732 21.25 15.5996V12.4004C21.25 11.268 21.2497 10.4634 21.1982 9.83399C21.1475 9.21336 21.0506 8.82889 20.8955 8.52442C20.5839 7.91305 20.087 7.41606 19.4756 7.1045C19.1711 6.94936 18.7866 6.85247 18.166 6.80176C17.5367 6.75035 16.732 6.75001 15.5996 6.75001H14.7891C14.2948 6.75001 13.9157 6.75526 13.5625 6.66602C13.0143 6.52747 12.5214 6.22329 12.1523 5.79493C11.9146 5.5189 11.7503 5.17743 11.5293 4.73536C11.1529 3.98266 11.0188 3.72645 10.8506 3.53126C10.5486 3.18078 10.1458 2.93173 9.69727 2.81837C9.44747 2.75524 9.15798 2.75001 8.31641 2.75001H6.79981C5.94746 2.75001 5.35322 2.7503 4.89063 2.78809C4.4368 2.82517 4.17602 2.8945 3.97852 2.99512C3.55515 3.21084 3.21083 3.55516 2.99512 3.97852C2.89449 4.17603 2.82517 4.43681 2.78809 4.89063C2.75029 5.35323 2.75 5.94746 2.75 6.79981V15.5996Z" fill="#2F384C"/>
</svg>
