<svg width="24" height="24" viewBox="0 0 24 24" fill="none" xmlns="http://www.w3.org/2000/svg">
<path d="M22.25 11.2461C22.25 10.621 21.7883 10.0913 21.1689 10.0068L20.4385 9.90723C19.4637 9.77424 18.7125 9.12266 18.2783 8.37305C17.8415 7.61868 17.6597 6.64815 18.0312 5.73927L18.3105 5.05567C18.5468 4.47715 18.3195 3.81248 17.7783 3.50001L16.4717 2.7461C15.9304 2.43367 15.2412 2.56938 14.8584 3.06348L14.4062 3.64649C13.8047 4.42287 12.8699 4.75001 12 4.75001C11.1301 4.75001 10.1953 4.42291 9.59375 3.64649L9.1416 3.06348C8.7588 2.56936 8.06965 2.43362 7.52832 2.7461L6.22168 3.50001C5.68041 3.81251 5.45307 4.47712 5.68945 5.05567L5.96875 5.73927C6.34013 6.64793 6.15832 7.61778 5.72168 8.37208C5.28753 9.12175 4.53636 9.77422 3.56152 9.90723L2.83105 10.0068C2.2117 10.0913 1.75 10.621 1.75 11.2461V12.7539C1.75 13.379 2.2117 13.9087 2.83105 13.9932L3.56152 14.0928C4.53636 14.2258 5.28753 14.8783 5.72168 15.6279C6.15832 16.3822 6.34012 17.3521 5.96875 18.2607L5.68945 18.9443C5.45307 19.5229 5.68041 20.1875 6.22168 20.5L7.52832 21.2539C8.06965 21.5664 8.7588 21.4307 9.1416 20.9365L9.59375 20.3535C10.1953 19.5772 11.1301 19.25 12 19.25C12.87 19.25 13.8056 19.577 14.4072 20.3535L14.8584 20.9365C15.2412 21.4306 15.9304 21.5663 16.4717 21.2539L17.7783 20.5C18.3195 20.1875 18.5468 19.5229 18.3105 18.9443L18.0312 18.2607C17.6598 17.3521 17.8417 16.3822 18.2783 15.6279C18.7125 14.8783 19.4636 14.2258 20.4385 14.0928L21.1689 13.9932C21.7883 13.9087 22.25 13.379 22.25 12.7539V11.2461ZM14.25 12C14.25 10.7574 13.2426 9.75001 12 9.75001C10.7574 9.75001 9.75 10.7574 9.75 12C9.75 13.2426 10.7574 14.25 12 14.25C13.2426 14.25 14.25 13.2426 14.25 12ZM15.75 12C15.75 14.0711 14.0711 15.75 12 15.75C9.92893 15.75 8.25 14.0711 8.25 12C8.25 9.92894 9.92893 8.25001 12 8.25001C14.0711 8.25001 15.75 9.92894 15.75 12ZM23.75 12.7539C23.75 14.1291 22.7337 15.2937 21.3711 15.4795L20.6416 15.5791C20.236 15.6344 19.8413 15.923 19.5771 16.3789C19.3151 16.8314 19.2637 17.3113 19.4199 17.6934L19.6982 18.376C20.2186 19.6489 19.7193 21.1112 18.5283 21.7988L17.2217 22.5527C16.0307 23.2403 14.515 22.9426 13.6729 21.8555L13.2207 21.2725C12.9685 20.9469 12.5242 20.75 12 20.75C11.4759 20.75 11.0315 20.9469 10.7793 21.2725L10.3271 21.8555C9.48494 22.9426 7.96927 23.2403 6.77832 22.5527L5.47168 21.7988C4.28083 21.1112 3.78149 19.6498 4.30176 18.377L4.58008 17.6934C4.73626 17.3113 4.6849 16.8314 4.42285 16.3789C4.1587 15.923 3.76404 15.6344 3.3584 15.5791L2.62891 15.4795C1.26632 15.2937 0.25 14.1291 0.25 12.7539V11.2461C0.25 9.87091 1.26632 8.7073 2.62891 8.52149L3.3584 8.42188C3.76407 8.36656 4.15869 8.07705 4.42285 7.6211C4.68485 7.1687 4.73711 6.68868 4.58105 6.30665L4.30176 5.62305C3.7815 4.35019 4.28084 2.88877 5.47168 2.20118L6.77832 1.44727C7.96927 0.759676 9.48494 1.05741 10.3271 2.14454L10.7793 2.72755C11.0315 3.05306 11.4759 3.25001 12 3.25001C12.5241 3.25001 12.9685 3.05312 13.2207 2.72755L13.6729 2.14454C14.515 1.05745 16.0307 0.75973 17.2217 1.44727L18.5283 2.20118C19.7193 2.88878 20.2186 4.3511 19.6982 5.62403L19.4199 6.30665C19.2637 6.6887 19.3151 7.16861 19.5771 7.6211C19.8413 8.07705 20.2359 8.36657 20.6416 8.42188L21.3711 8.52149C22.7337 8.7073 23.75 9.87091 23.75 11.2461V12.7539Z" fill="#111827"/>
</svg>
