<svg width="24" height="24" viewBox="0 0 24 24" fill="none" xmlns="http://www.w3.org/2000/svg">
<path d="M14.4316 1.26962C14.9301 0.884383 15.5813 0.755931 16.1885 0.92392C16.4342 0.991947 16.6861 1.13722 17.1895 1.42783L18.5625 2.22079C19.0642 2.51045 19.3148 2.65604 19.4961 2.83408C19.9464 3.27633 20.1622 3.90498 20.0771 4.53036C20.0429 4.78219 19.9331 5.05069 19.7139 5.58701L19.4521 6.22665C19.2658 6.68281 19.3314 7.19658 19.5781 7.62314C19.8247 8.0493 20.2387 8.36618 20.7266 8.43271L21.4102 8.52646C21.9847 8.60481 22.2724 8.64397 22.5078 8.74033C23.0916 8.97936 23.5286 9.48018 23.6865 10.0909C23.75 10.337 23.75 10.6269 23.75 11.2061V12.7931C23.75 13.3728 23.7501 13.6631 23.6865 13.9093C23.5286 14.5201 23.0916 15.0208 22.5078 15.2599C22.2724 15.3562 21.9847 15.3954 21.4102 15.4737L20.7266 15.5665C20.2388 15.633 19.8247 15.95 19.5781 16.3761C19.3312 16.8028 19.2656 17.3172 19.4521 17.7735L19.7139 18.4132C19.9331 18.9494 20.0429 19.218 20.0771 19.4698C20.1621 20.0951 19.9463 20.7239 19.4961 21.1661C19.3148 21.3441 19.064 21.4889 18.5625 21.7784L17.1895 22.5714C16.6862 22.8619 16.4342 23.0072 16.1885 23.0753C15.5813 23.2433 14.9301 23.1158 14.4316 22.7306C14.2299 22.5746 14.0523 22.3444 13.6963 21.8849L13.2734 21.3399C12.9718 20.9506 12.4925 20.7501 12 20.7501C11.5076 20.7501 11.0281 20.9507 10.7266 21.3399L10.3037 21.8849C9.94772 22.3444 9.77009 22.5746 9.56836 22.7306C9.06994 23.1158 8.41864 23.2432 7.81152 23.0753C7.56583 23.0072 7.31383 22.862 6.81055 22.5714L5.4375 21.7784C4.9358 21.4888 4.68424 21.3442 4.50293 21.1661C4.05289 20.7239 3.83785 20.095 3.92285 19.4698C3.95713 19.218 4.06689 18.9495 4.28613 18.4132L4.54785 17.7735C4.73436 17.3172 4.66878 16.8028 4.42188 16.3761C4.17526 15.95 3.76122 15.633 3.27344 15.5665L2.58984 15.4737C2.01528 15.3954 1.72759 15.3562 1.49219 15.2599C0.908363 15.0208 0.471387 14.5201 0.313477 13.9093C0.24987 13.6631 0.25 13.3728 0.25 12.7931V11.2061C0.25 10.6269 0.249953 10.337 0.313477 10.0909C0.471386 9.48018 0.908425 8.97936 1.49219 8.74033C1.72758 8.64397 2.01529 8.60481 2.58984 8.52646L3.27344 8.43271C3.76129 8.36616 4.17527 8.04931 4.42188 7.62314C4.66859 7.19658 4.73416 6.68282 4.54785 6.22665L4.28613 5.58701C4.06691 5.05075 3.95715 4.78217 3.92285 4.53036C3.83779 3.9052 4.05297 3.27631 4.50293 2.83408C4.68427 2.65597 4.93567 2.51052 5.4375 2.22079L6.81055 1.42783C7.31387 1.13723 7.56579 0.991965 7.81152 0.92392C8.41857 0.755999 9.06998 0.883537 9.56836 1.26865C9.7702 1.42463 9.94855 1.65464 10.3047 2.11435L10.7266 2.66025C11.0281 3.04946 11.5076 3.25009 12 3.25009C12.4924 3.25009 12.9719 3.04953 13.2734 2.66025L13.6963 2.11435C14.052 1.6552 14.23 1.42553 14.4316 1.26962ZM12 9.00009C10.3432 9.00009 9.00002 10.3433 9 12.0001C9.00007 13.6569 10.3432 15.0001 12 15.0001C13.6568 15.0001 14.9999 13.6569 15 12.0001C15 10.3433 13.6568 9.00009 12 9.00009Z" fill="#111827"/>
</svg>
