<svg width="24" height="24" viewBox="0 0 24 24" fill="none" xmlns="http://www.w3.org/2000/svg">
<path d="M10.5322 1.13965C11.4862 0.829672 12.5137 0.829672 13.4677 1.13965C14.056 1.33079 14.5686 1.6716 15.1142 2.13476C15.6531 2.59229 16.2724 3.21188 17.0556 3.99512L23.5302 10.4697C23.8231 10.7626 23.8231 11.2374 23.5302 11.5303C23.2373 11.8232 22.7626 11.8232 22.4697 11.5303L21.9599 11.0205L20.7646 17.002C20.5835 17.9074 20.4399 18.6272 20.2792 19.2041C20.1161 19.79 19.9217 20.2796 19.6152 20.7187C19.1142 21.4364 18.425 22.002 17.623 22.3525C17.1322 22.567 16.6134 22.661 16.0068 22.7061C15.4096 22.7504 14.6761 22.75 13.7529 22.75H10.247C9.32375 22.75 8.59024 22.7504 7.99311 22.7061C7.38649 22.661 6.86769 22.567 6.3769 22.3525C5.57489 22.002 4.88572 21.4364 4.38471 20.7187C4.07818 20.2796 3.88381 19.79 3.72065 19.2041C3.56 18.6272 3.41639 17.9074 3.23529 17.002L2.03901 11.0205L1.53022 11.5303C1.23732 11.8232 0.762563 11.8232 0.46967 11.5303C0.176777 11.2374 0.176777 10.7626 0.46967 10.4697L6.94428 3.99512C7.72752 3.21188 8.34675 2.59229 8.88569 2.13476C9.43129 1.6716 9.94391 1.33079 10.5322 1.13965ZM13.0038 2.5664C12.3512 2.35441 11.6486 2.35441 10.996 2.5664C10.6711 2.672 10.3311 2.87535 9.85639 3.27832C9.375 3.68698 8.80556 4.25493 8.00483 5.05566L3.31342 9.74609L4.706 16.708C4.89143 17.6352 5.02372 18.291 5.16596 18.8018C5.30562 19.3032 5.44237 19.6142 5.6142 19.8603C5.95701 20.3514 6.4287 20.7387 6.97748 20.9785C7.25264 21.0988 7.5851 21.1714 8.10444 21.21C8.63314 21.2492 9.30175 21.25 10.247 21.25H13.7529C14.6981 21.25 15.3667 21.2492 15.8955 21.21C16.4148 21.1714 16.7472 21.0988 17.0224 20.9785C17.5712 20.7387 18.0429 20.3514 18.3857 19.8603C18.5575 19.6142 18.6943 19.3032 18.8339 18.8018C18.9762 18.291 19.1085 17.6352 19.2939 16.708L20.6855 9.74609L15.9951 5.05566C15.1943 4.25493 14.6249 3.68698 14.1435 3.27832C13.6688 2.87535 13.3288 2.672 13.0038 2.5664ZM14.2499 12C14.2499 10.7574 13.2426 9.75 11.9999 9.75C10.7573 9.75 9.74994 10.7574 9.74994 12C9.74994 13.2426 10.7573 14.25 11.9999 14.25C13.2426 14.25 14.2499 13.2426 14.2499 12ZM15.7499 12C15.7499 14.0711 14.071 15.75 11.9999 15.75C9.92888 15.75 8.24994 14.0711 8.24994 12C8.24994 9.92893 9.92888 8.25 11.9999 8.25C14.071 8.25 15.7499 9.92893 15.7499 12Z" fill="#111827"/>
</svg>
