<svg width="24" height="24" viewBox="0 0 24 24" fill="none" xmlns="http://www.w3.org/2000/svg">
<path d="M21.25 17V11.8447C21.25 10.3913 21.244 9.80548 21.0977 9.27441C20.9625 8.78375 20.7401 8.32128 20.4414 7.90918C20.1181 7.46314 19.6644 7.09165 18.5293 6.18359L16.5293 4.58398C15.6291 3.86379 14.985 3.34832 14.4434 2.97656C13.9096 2.61015 13.5163 2.41271 13.1328 2.30664C12.3916 2.10166 11.6085 2.10166 10.8672 2.30664C10.4838 2.41271 10.0905 2.61015 9.55666 2.97656C9.01506 3.34833 8.37097 3.86378 7.47073 4.58398L5.47073 6.18359C4.33566 7.09165 3.88195 7.46314 3.55862 7.90918C3.25997 8.32128 3.03754 8.78375 2.90237 9.27441C2.75609 9.80548 2.75002 10.3913 2.75002 11.8447V17C2.75002 19.3472 4.65281 21.25 7.00002 21.25C7.69038 21.25 8.25002 20.6904 8.25002 20V16C8.25002 13.9289 9.92896 12.25 12 12.25C14.0711 12.25 15.75 13.9289 15.75 16V20C15.75 20.6904 16.3097 21.25 17 21.25C19.3472 21.25 21.25 19.3472 21.25 17ZM22.75 17C22.75 20.1756 20.1757 22.75 17 22.75C15.4812 22.75 14.25 21.5188 14.25 20V16C14.25 14.7574 13.2427 13.75 12 13.75C10.7574 13.75 9.75002 14.7574 9.75002 16V20C9.75002 21.5188 8.51881 22.75 7.00002 22.75C3.82439 22.75 1.25002 20.1756 1.25002 17V11.8447C1.25002 10.4747 1.2433 9.64842 1.45608 8.87597C1.63902 8.21189 1.94047 7.58602 2.34475 7.02832C2.81504 6.3796 3.46427 5.86864 4.5342 5.01269L6.5342 3.41211C7.41731 2.70562 8.1107 2.15025 8.70803 1.74023C9.31323 1.32483 9.86125 1.02887 10.4668 0.861326C11.4701 0.583782 12.53 0.583782 13.5332 0.861326C14.1388 1.02887 14.6868 1.32483 15.292 1.74023C15.8894 2.15025 16.5827 2.70562 17.4658 3.41211L19.4658 5.01269C20.5358 5.86864 21.185 6.3796 21.6553 7.02832C22.0596 7.58602 22.361 8.21189 22.544 8.87597C22.7567 9.64842 22.75 10.4747 22.75 11.8447V17Z" fill="#111827"/>
</svg>
