<svg width="24" height="24" viewBox="0 0 24 24" fill="none" xmlns="http://www.w3.org/2000/svg">
<path d="M17.9971 3.83717C15.8568 2.12493 14.7866 1.26881 13.5998 0.940475C12.5529 0.650864 11.4471 0.650864 10.4002 0.940475C9.21339 1.26881 8.14324 2.12493 6.00293 3.83717L4.85293 4.75718C3.52983 5.81566 2.86828 6.34489 2.39209 7.0018C1.97024 7.58375 1.65638 8.23677 1.46548 8.92972C1.25 9.71192 1.25 10.5591 1.25 12.2535V17.5833C1.25 20.4368 3.5632 22.75 6.41667 22.75C7.8434 22.75 9 21.5934 9 20.1667V16C9 14.3431 10.3431 13 12 13C13.6569 13 15 14.3431 15 16V20.1667C15 21.5934 16.1566 22.75 17.5833 22.75C20.4368 22.75 22.75 20.4368 22.75 17.5833V12.2535C22.75 10.5591 22.75 9.71192 22.5345 8.92972C22.3436 8.23677 22.0298 7.58375 21.6079 7.0018C21.1317 6.34489 20.4702 5.81566 19.1471 4.75718L17.9971 3.83717Z" fill="#111827"/>
</svg>
