<svg width="24" height="24" viewBox="0 0 24 24" fill="none" xmlns="http://www.w3.org/2000/svg">
<path d="M8.15918 12.1963C8.70543 12.0161 9.2949 12.0115 9.84375 12.1836C10.201 12.2957 10.5003 12.4937 10.791 12.7334C11.0749 12.9675 11.3975 13.2818 11.7852 13.6582L14.4785 16.2725L15.0195 15.7324C15.4068 15.3452 15.7288 15.0222 16.0127 14.7812C16.3032 14.5346 16.603 14.3298 16.9629 14.2129C17.5151 14.0335 18.1099 14.0335 18.6621 14.2129C19.022 14.3298 19.3218 14.5347 19.6123 14.7812C19.8962 15.0222 20.2182 15.3452 20.6055 15.7324L21.1719 16.2988C21.1726 16.2898 21.1741 16.2806 21.1748 16.2715C21.2492 15.3348 21.25 14.1449 21.25 12.5V12C21.25 11.5858 21.5858 11.25 22 11.25C22.4142 11.25 22.75 11.5858 22.75 12V12.5C22.75 14.121 22.7502 15.3807 22.6699 16.3906C22.589 17.4089 22.4226 18.2373 22.0537 18.9854C21.3965 20.318 20.318 21.3965 18.9854 22.0537C18.2373 22.4226 17.4089 22.589 16.3906 22.6699C15.3807 22.7502 14.121 22.75 12.5 22.75H11.5996C9.93202 22.75 8.63571 22.7508 7.59766 22.666C6.55103 22.5805 5.70049 22.4044 4.93555 22.0146C3.66545 21.3675 2.6325 20.3345 1.98535 19.0645C1.97953 19.053 1.97545 19.0408 1.96973 19.0293C1.83008 18.8894 1.75912 18.7085 1.75293 18.5254C1.52239 17.9004 1.40001 17.2102 1.33398 16.4023C1.24917 15.3643 1.25 14.068 1.25 12.4004V11.5C1.25 9.87902 1.24982 8.61932 1.33008 7.60938C1.411 6.59111 1.57739 5.7627 1.94629 5.01465C2.60349 3.68198 3.68198 2.60349 5.01465 1.94629C5.7627 1.57739 6.59111 1.411 7.60938 1.33008C8.61932 1.24982 9.87902 1.25 11.5 1.25H12C12.4142 1.25 12.75 1.58579 12.75 2C12.75 2.41421 12.4142 2.75 12 2.75H11.5C9.85508 2.75 8.66523 2.75077 7.72852 2.8252C6.80017 2.89897 6.18438 3.04117 5.67773 3.29102C4.64125 3.80217 3.80217 4.64125 3.29102 5.67773C3.04117 6.18438 2.89897 6.80017 2.8252 7.72852C2.75077 8.66523 2.75 9.85508 2.75 11.5V12.4004C2.75 14.0925 2.75047 15.3165 2.8291 16.2793C2.85135 16.5516 2.88095 16.7979 2.91602 17.0225L6.24023 13.6992C6.62228 13.3172 6.94031 12.998 7.2207 12.7598C7.50771 12.5159 7.80373 12.3136 8.15918 12.1963ZM9.39453 13.6152C9.14507 13.537 8.87718 13.5382 8.62891 13.6201C8.53308 13.6517 8.40778 13.7194 8.19141 13.9033C7.96823 14.093 7.70004 14.3605 7.30078 14.7598L3.44727 18.6123C3.95376 19.495 4.70611 20.2139 5.61621 20.6777C6.1346 20.9419 6.76657 21.0929 7.7207 21.1709C8.68345 21.2495 9.90753 21.25 11.5996 21.25H12.5C14.1449 21.25 15.3348 21.2492 16.2715 21.1748C16.6066 21.1482 16.9009 21.1109 17.1641 21.0645L13.9639 17.8643L10.7402 14.7344C10.3349 14.3409 10.062 14.077 9.83594 13.8906C9.61703 13.7101 9.49077 13.6454 9.39453 13.6152ZM18.1992 15.6396C17.9482 15.5581 17.6768 15.5581 17.4258 15.6396C17.3292 15.6711 17.2026 15.7387 16.9834 15.9248C16.7571 16.1169 16.4848 16.3882 16.0801 16.793L15.5469 17.3262L18.7139 20.4932C19.5698 19.9762 20.264 19.2246 20.709 18.3223C20.7492 18.2407 20.7845 18.1554 20.8193 18.0674L19.5449 16.793C19.1402 16.3882 18.8679 16.1169 18.6416 15.9248C18.4224 15.7387 18.2958 15.6711 18.1992 15.6396ZM17.4697 3.46973C18.3149 2.62455 19.6851 2.62455 20.5303 3.46973C21.3755 4.3149 21.3755 5.68509 20.5303 6.53027L18.4004 8.66016C17.9095 9.15109 17.6021 9.46196 17.2451 9.71094C16.9394 9.92417 16.6097 10.1012 16.2627 10.2373C15.8575 10.3962 15.4279 10.4791 14.7471 10.6152L14.1475 10.7354C13.9016 10.7845 13.647 10.7076 13.4697 10.5303C13.2924 10.353 13.2155 10.0984 13.2646 9.85254L13.3848 9.25293C13.5209 8.57207 13.6038 8.14251 13.7627 7.7373C13.8988 7.39029 14.0758 7.06063 14.2891 6.75488C14.538 6.39792 14.8489 6.09055 15.3398 5.59961L17.4697 3.46973ZM19.4697 4.53027C19.2103 4.27088 18.7897 4.27088 18.5303 4.53027L16.4004 6.66016C15.8729 7.18764 15.6752 7.39007 15.5195 7.61328C15.3736 7.82247 15.2523 8.04773 15.1592 8.28516C15.0872 8.46862 15.0398 8.66522 14.9619 9.03711C15.3343 8.95917 15.5313 8.91283 15.7148 8.84082C15.9523 8.74768 16.1775 8.62636 16.3867 8.48047C16.6099 8.3248 16.8124 8.12709 17.3398 7.59961L19.4697 5.46973C19.7291 5.21034 19.7291 4.78967 19.4697 4.53027Z" fill="#111827"/>
</svg>
