<svg width="24" height="24" viewBox="0 0 24 24" fill="none" xmlns="http://www.w3.org/2000/svg">
<path d="M8.15918 12.1963C8.70543 12.0161 9.2949 12.0115 9.84375 12.1836C10.201 12.2957 10.5003 12.4937 10.791 12.7334C11.0749 12.9675 11.3975 13.2818 11.7852 13.6582L14.4785 16.2725C14.635 16.116 14.8191 15.9329 15.0186 15.7334C15.406 15.346 15.7288 15.0223 16.0127 14.7812C16.3032 14.5346 16.603 14.3298 16.9629 14.2129C17.5151 14.0335 18.1099 14.0335 18.6621 14.2129C19.022 14.3298 19.3218 14.5347 19.6123 14.7812C19.8962 15.0222 20.2182 15.3452 20.6055 15.7324L21.1689 16.2959C21.1694 16.2905 21.1705 16.2847 21.1709 16.2793C21.2495 15.3165 21.25 14.0925 21.25 12.4004V11.5996C21.25 9.90753 21.2495 8.68345 21.1709 7.7207C21.0929 6.76657 20.9419 6.1346 20.6777 5.61621C20.1744 4.62859 19.3714 3.82556 18.3838 3.32227C17.8654 3.05814 17.2334 2.90706 16.2793 2.8291C15.3165 2.75047 14.0925 2.75 12.4004 2.75H11.5996C9.90753 2.75 8.68345 2.75047 7.7207 2.8291C6.76657 2.90706 6.1346 3.05814 5.61621 3.32227C4.62859 3.82556 3.82556 4.62859 3.32227 5.61621C3.05814 6.1346 2.90706 6.76657 2.8291 7.7207C2.75047 8.68345 2.75 9.90753 2.75 11.5996V12.4004C2.75 14.0925 2.75047 15.3165 2.8291 16.2793C2.85135 16.5516 2.88095 16.7979 2.91602 17.0225L6.24023 13.6992C6.62228 13.3172 6.94031 12.998 7.2207 12.7598C7.50771 12.5159 7.80373 12.3136 8.15918 12.1963ZM9.39453 13.6152C9.14507 13.537 8.87718 13.5382 8.62891 13.6201C8.53308 13.6517 8.40778 13.7194 8.19141 13.9033C7.96823 14.093 7.70004 14.3605 7.30078 14.7598L3.53027 18.5303C3.50248 18.5581 3.47216 18.582 3.44141 18.6045C3.94793 19.4911 4.70322 20.2125 5.61621 20.6777C6.1346 20.9419 6.76657 21.0929 7.7207 21.1709C8.68345 21.2495 9.90753 21.25 11.5996 21.25H12.4004C14.0925 21.25 15.3165 21.2495 16.2793 21.1709C16.6084 21.144 16.8992 21.1064 17.1602 21.0605L13.9639 17.8643L10.7402 14.7344C10.3349 14.3409 10.062 14.077 9.83594 13.8906C9.61703 13.7101 9.49077 13.6454 9.39453 13.6152ZM18.1992 15.6396C17.9482 15.5581 17.6768 15.5581 17.4258 15.6396C17.3292 15.6711 17.2027 15.7387 16.9834 15.9248C16.757 16.117 16.484 16.389 16.0791 16.7939L15.5469 17.3262L18.7139 20.4932C19.5502 19.988 20.2318 19.2588 20.6777 18.3838C20.7292 18.2829 20.7742 18.1765 20.8174 18.0654L19.5449 16.793C19.1402 16.3882 18.8679 16.1169 18.6416 15.9248C18.4224 15.7387 18.2958 15.6711 18.1992 15.6396ZM17.25 8C17.25 7.30964 16.6904 6.75 16 6.75C15.3096 6.75 14.75 7.30964 14.75 8C14.75 8.69036 15.3096 9.25 16 9.25C16.6904 9.25 17.25 8.69036 17.25 8ZM22.75 12.4004C22.75 14.068 22.7508 15.3643 22.666 16.4023C22.5805 17.449 22.4044 18.2995 22.0146 19.0645C21.3675 20.3345 20.3345 21.3675 19.0645 22.0146C18.2995 22.4044 17.449 22.5805 16.4023 22.666C15.3643 22.7508 14.068 22.75 12.4004 22.75H11.5996C9.93202 22.75 8.63571 22.7508 7.59766 22.666C6.55103 22.5805 5.70049 22.4044 4.93555 22.0146C3.66545 21.3675 2.6325 20.3345 1.98535 19.0645C1.59562 18.2995 1.41953 17.449 1.33398 16.4023C1.24917 15.3643 1.25 14.068 1.25 12.4004V11.5996C1.25 9.93202 1.24917 8.63571 1.33398 7.59766C1.41953 6.55103 1.59562 5.70049 1.98535 4.93555C2.6325 3.66545 3.66545 2.6325 4.93555 1.98535C5.70049 1.59562 6.55103 1.41953 7.59766 1.33398C8.63571 1.24917 9.93202 1.25 11.5996 1.25H12.4004C14.068 1.25 15.3643 1.24917 16.4023 1.33398C17.449 1.41953 18.2995 1.59562 19.0645 1.98535C20.3345 2.6325 21.3675 3.66545 22.0146 4.93555C22.4044 5.70049 22.5805 6.55103 22.666 7.59766C22.7508 8.63571 22.75 9.93202 22.75 11.5996V12.4004ZM18.75 8C18.75 9.51878 17.5188 10.75 16 10.75C14.4812 10.75 13.25 9.51878 13.25 8C13.25 6.48122 14.4812 5.25 16 5.25C17.5188 5.25 18.75 6.48122 18.75 8Z" fill="#111827"/>
</svg>
