<svg width="80" height="80" viewBox="0 0 80 80" fill="none" xmlns="http://www.w3.org/2000/svg">
<path d="M44.5773 79.8107C35.8437 80.5987 26.7919 78.9494 19.2442 74.4307C16.045 72.5143 13.2032 70.0626 10.6899 67.315C9.88227 66.4314 7.16217 63.3343 6.73543 62.4337C6.48803 61.9127 6.72365 61.7046 7.2538 61.7151C11.1311 61.791 14.2805 63.7859 17.5923 65.5426C21.2758 67.4956 25.1989 68.3543 29.2057 66.8189C32.634 65.5046 36.2115 64.2716 39.7798 63.3854C43.2186 62.5319 47.5069 61.9284 50.909 63.2898C52.7743 63.854 54.3621 64.9339 56.4028 65.1263C59.4489 65.4156 61.5001 64.3985 64.2791 63.7035C66.9547 63.0332 69.9039 62.0161 72.6711 62.7688C72.7863 63.1026 72.6986 63.4796 72.5219 63.7846C72.0375 64.6158 71.1566 65.2441 70.5243 65.9602C69.714 66.8765 68.8697 67.7614 67.9914 68.6135C66.2256 70.3244 64.3249 71.8991 62.3038 73.2997C58.3362 76.0486 53.7298 78.3184 48.9533 79.2086C47.5095 79.4769 46.0486 79.6798 44.5773 79.812V79.8107Z" fill="#30A8C3"/>
<path d="M44.1095 0.215634C49.1269 0.737925 54.0395 2.20793 58.6276 4.60209C66.0077 8.45317 72.1273 14.5701 75.8527 22.0262C80.6659 31.6631 81.2183 42.7961 77.9078 52.9919C77.0491 55.6374 75.9247 58.2161 74.4259 60.5645C74.0698 61.1221 73.6444 62.0057 72.8564 61.5606L72.88 61.2465C78.959 51.4722 80.8439 39.8954 77.4431 28.7689C68.9647 1.02721 34.5956 -8.429 13.1725 11.5503C0.00269646 23.8339 -3.00015 44.435 6.41941 59.9335L6.08169 60.4728C5.14707 60.3851 4.9926 59.317 4.64572 58.6939C1.08917 52.285 -0.0902422 44.8054 0.00531476 37.5575C0.0616018 33.3373 1.44129 28.727 3.01994 24.8327C4.57242 21.0026 6.70347 17.408 9.34241 14.2259C14.6596 7.81307 21.9743 3.23681 30.056 1.22226C34.7134 0.0611721 39.456 -0.268696 44.1095 0.215634Z" fill="#30A8C3"/>
<path d="M51.7024 40.3365C58.0471 44.9402 63.2582 48.913 71.395 49.7416C71.8178 49.7848 72.8899 49.6107 73.1621 49.8673C73.2682 49.993 73.3035 50.137 73.3192 50.2967C73.5012 52.1567 70.9918 59.0984 69.9302 60.7831C69.8059 60.9807 69.6187 61.1286 69.4564 61.291L68.6003 61.2347L68.5414 60.9729C69.1906 59.0539 69.6422 57.0734 69.7548 55.0444L62.0618 54.0928L61.9322 53.8951C62.7098 50.1762 58.7841 43.8407 54.7 47.2558C51.5231 49.9118 51.5545 57.504 55.7511 59.2267L55.8506 59.5251L55.6189 59.7568C51.1461 59.7908 49.6892 54.0757 50.646 50.5205L46.3224 48.43L45.8276 44.753C42.3588 34.8675 32.9209 38.9411 33.0662 48.3999C33.1002 50.5846 33.9838 53.526 35.425 55.2041C36.264 56.1819 37.4644 56.771 38.5653 57.2998L38.5679 57.4975C36.1672 57.4831 34.3542 57.148 32.7127 55.2983C29.6104 51.7994 29.5751 44.9363 32.5347 41.3182L32.4496 40.9661C30.871 40.1768 29.2858 39.3626 27.6469 38.7015C23.2814 36.9396 18.7182 35.772 13.9862 35.7969C12.2282 36.9331 10.9729 38.6924 9.8445 40.4255C9.63768 40.7436 8.83657 42.3955 8.75018 42.4728C8.63106 42.5788 8.52503 42.6233 8.36271 42.6115L8.21087 42.4963C7.36787 36.0757 8.97271 28.1628 13.8291 23.597C14.6184 23.5643 15.4287 23.5211 16.218 23.5603C30.977 24.2894 40.4136 32.1461 51.7024 40.3378V40.3365Z" fill="#30A8C3"/>
<path d="M46.2499 15.421C51.2045 19.3283 55.8227 23.7816 60.4159 28.0568C60.4029 29.0752 60.8728 32.565 59.0847 30.6918C58.7718 30.7206 58.8334 32.5322 58.7915 32.8844C58.3922 36.2171 57.9406 39.5459 57.6762 42.8956L57.4367 43.249L57.1592 43.2268C56.7743 42.7621 56.2193 42.8197 56.1695 42.1154C56.0046 39.7723 56.9248 35.488 57.1565 32.9511C57.2639 31.7756 57.3202 30.5687 57.383 29.3893C57.2429 28.9875 56.7926 28.8958 56.6002 28.7322C55.1695 27.5096 53.6536 26.4375 52.1863 25.2922C45.1661 19.814 37.6996 13.0111 28.1308 13.5478C24.2561 13.7651 20.1406 15.5637 20.5687 20.1216L20.1812 20.3873C18.0292 18.3976 17.6509 14.6762 19.2374 12.244C21.3423 9.01605 26.2667 8.20447 29.8312 8.37725C36.1379 8.68094 41.4276 11.6144 46.2526 15.4197L46.2499 15.421Z" fill="#30A8C3"/>
<path d="M57.0785 11.9312C60.4309 11.4835 65.9104 12.7925 68.0859 15.5453C69.8884 17.8269 69.2156 20.1386 68.9433 22.7501C68.1042 30.8017 65.9274 38.7303 64.6406 46.7218L64.3094 47.1119L63.1065 46.6393C62.9952 46.4587 63.0463 46.1327 63.0554 45.922C63.2426 41.7109 65.3017 36.5103 65.6158 32.1853L66.7664 25.8354C63.4246 22.8312 59.0172 21.4908 54.6215 21.0235L51.1357 17.7667C51.1082 17.5835 51.1409 17.4146 51.1946 17.2405C52.0546 14.4261 54.0613 12.3357 57.0772 11.9325L57.0785 11.9312Z" fill="#30A8C3"/>
<path d="M27.8226 15.4C29.7769 15.3136 35.5391 15.866 36.3926 17.9146C36.7539 18.7825 36.8364 23.2632 36.8691 24.5067C36.9018 25.7503 36.8782 27.0737 36.8403 28.3447L36.39 28.3892C31.8805 25.6822 26.7047 23.9255 21.5328 22.9569L21.1925 22.6427C20.4189 17.9369 23.4741 15.5924 27.8213 15.4H27.8226Z" fill="#30A8C3"/>
<path d="M13.5454 37.581L14.0193 37.7996C14.2038 43.5174 15.183 49.3607 16.9056 54.8101C18.102 58.5931 19.7645 62.49 21.9976 65.7586L21.8131 66.0099C20.1663 65.612 19.0144 65.0295 17.9135 63.7506C14.3976 59.6691 11.1866 53.1843 10.0255 47.9457C9.83701 47.0975 9.37886 44.6025 9.45871 43.8354C9.51893 43.2569 10.9169 40.8431 11.3136 40.2579C11.5256 39.9438 13.3792 37.6269 13.5467 37.581H13.5454Z" fill="#30A8C3"/>
<path d="M39.0059 18.9946C39.3005 18.9226 39.523 18.9841 39.7913 19.0967C40.5558 19.42 42.2824 20.9096 43.0481 21.4686C44.1922 22.3024 45.6295 22.8928 46.318 24.2201C46.0039 27.1915 46.3769 30.5648 46.0955 33.4799C46.0732 33.7169 46.051 34.2941 45.7839 34.3517L38.6604 29.4561L38.498 19.5339C38.5151 19.3179 38.8201 19.0417 39.0059 18.9959V18.9946Z" fill="#30A8C3"/>
<path d="M52.8774 40.2082C51.715 39.3587 49.0957 37.6504 48.2239 36.7145C48.1022 36.5836 48.0158 36.3257 47.9974 36.1503C47.9228 35.4356 48.2514 30.2153 48.4032 29.5032C49.275 25.4047 53.9979 27.3983 54.8605 30.7324C55.1642 34.1017 54.4456 37.4947 54.1969 40.8601C53.9351 41.2659 53.0842 40.3601 52.8774 40.2095V40.2082ZM51.4467 29.6616C50.1154 30.1721 49.6141 32.2207 49.7554 33.4813C49.7842 33.7444 50.1442 35.0481 50.2568 35.2707C50.3877 35.5285 51.2686 36.3179 51.5592 36.3283C54.1772 35.7812 54.2034 29.9535 51.4467 29.6616Z" fill="#30A8C3"/>
<path d="M41.9976 51.5324C41.224 52.3636 40.0249 52.9971 38.9751 52.1816C38.8573 51.5978 39.428 51.4041 39.7068 50.9106C40.8745 48.8437 40.6192 46.1393 38.9097 44.4572L39.1545 43.9454C43.2621 43.2569 44.2609 49.0976 41.9963 51.5324H41.9976Z" fill="#30A8C3"/>
<path d="M56.65 55.5157C57.3203 54.9462 57.7653 54.0941 57.6017 53.1922L55.2376 52.3007C55.1565 52.1882 55.1774 51.9473 55.2102 51.8177C55.6513 50.1095 57.5611 49.1212 58.9225 50.6265C60.4959 52.3675 59.7039 56.5576 56.9066 56.1112L56.65 55.5143V55.5157Z" fill="#30A8C3"/>
</svg>
