<svg width="24" height="24" viewBox="0 0 24 24" fill="none" xmlns="http://www.w3.org/2000/svg">
<path d="M21.25 11.5996C21.25 9.90753 21.2495 8.68345 21.1709 7.7207C21.0929 6.76657 20.9419 6.1346 20.6777 5.61621C20.1744 4.62859 19.3714 3.82556 18.3838 3.32227C17.8654 3.05814 17.2334 2.90706 16.2793 2.8291C15.3165 2.75047 14.0925 2.75 12.4004 2.75H11.5996C9.90753 2.75 8.68345 2.75047 7.7207 2.8291C6.76657 2.90706 6.1346 3.05814 5.61621 3.32227C4.62859 3.82556 3.82556 4.62859 3.32227 5.61621C3.05814 6.1346 2.90706 6.76657 2.8291 7.7207C2.75047 8.68345 2.75 9.90753 2.75 11.5996V12.4004C2.75 14.0925 2.75047 15.3165 2.8291 16.2793C2.90706 17.2334 3.05814 17.8654 3.32227 18.3838C3.82556 19.3714 4.62859 20.1744 5.61621 20.6777C6.1346 20.9419 6.76657 21.0929 7.7207 21.1709C8.68345 21.2495 9.90753 21.25 11.5996 21.25H12.4004C14.0925 21.25 15.3165 21.2495 16.2793 21.1709C17.2334 21.0929 17.8654 20.9419 18.3838 20.6777C19.3714 20.1744 20.1744 19.3714 20.6777 18.3838C20.9419 17.8654 21.0929 17.2334 21.1709 16.2793C21.2495 15.3165 21.25 14.0925 21.25 12.4004V11.5996ZM15.25 15.667C15.25 14.6084 14.3916 13.75 13.333 13.75H10.667C9.60845 13.75 8.75 14.6084 8.75 15.667C8.75018 15.9889 9.0111 16.2498 9.33301 16.25H14.667C14.9889 16.2498 15.2498 15.9889 15.25 15.667ZM13.25 8C13.25 7.30964 12.6904 6.75 12 6.75C11.3096 6.75 10.75 7.30964 10.75 8C10.75 8.69036 11.3096 9.25 12 9.25C12.6904 9.25 13.25 8.69036 13.25 8ZM16.75 15.667C16.7498 16.8173 15.8173 17.7498 14.667 17.75H9.33301C8.18267 17.7498 7.25018 16.8173 7.25 15.667C7.25 13.78 8.78002 12.25 10.667 12.25H13.333C15.22 12.25 16.75 13.78 16.75 15.667ZM22.75 12.4004C22.75 14.068 22.7508 15.3643 22.666 16.4023C22.5805 17.449 22.4044 18.2995 22.0146 19.0645C21.3675 20.3345 20.3345 21.3675 19.0645 22.0146C18.2995 22.4044 17.449 22.5805 16.4023 22.666C15.3643 22.7508 14.068 22.75 12.4004 22.75H11.5996C9.93202 22.75 8.63571 22.7508 7.59766 22.666C6.55103 22.5805 5.70049 22.4044 4.93555 22.0146C3.66545 21.3675 2.6325 20.3345 1.98535 19.0645C1.59562 18.2995 1.41953 17.449 1.33398 16.4023C1.24917 15.3643 1.25 14.068 1.25 12.4004V11.5996C1.25 9.93202 1.24917 8.63571 1.33398 7.59766C1.41953 6.55103 1.59562 5.70049 1.98535 4.93555C2.6325 3.66545 3.66545 2.6325 4.93555 1.98535C5.70049 1.59562 6.55103 1.41953 7.59766 1.33398C8.63571 1.24917 9.93202 1.25 11.5996 1.25H12.4004C14.068 1.25 15.3643 1.24917 16.4023 1.33398C17.449 1.41953 18.2995 1.59562 19.0645 1.98535C20.3345 2.6325 21.3675 3.66545 22.0146 4.93555C22.4044 5.70049 22.5805 6.55103 22.666 7.59766C22.7508 8.63571 22.75 9.93202 22.75 11.5996V12.4004ZM14.75 8C14.75 9.51878 13.5188 10.75 12 10.75C10.4812 10.75 9.25 9.51878 9.25 8C9.25 6.48122 10.4812 5.25 12 5.25C13.5188 5.25 14.75 6.48122 14.75 8Z" fill="#111827"/>
</svg>
