<svg width="24" height="24" viewBox="0 0 24 24" fill="none" xmlns="http://www.w3.org/2000/svg">
<path d="M15.25 18.7998C15.2499 16.5632 13.4368 14.7501 11.2002 14.75H6.7998C4.56321 14.7501 2.75011 16.5632 2.75 18.7998C2.75 20.1529 3.8471 21.25 5.2002 21.25H12.7998C14.1529 21.25 15.25 20.1529 15.25 18.7998ZM19.25 13V10.75H17C16.5858 10.75 16.25 10.4142 16.25 10C16.25 9.58579 16.5858 9.25 17 9.25H19.25V7C19.25 6.58579 19.5858 6.25 20 6.25C20.4142 6.25 20.75 6.58579 20.75 7V9.25H23C23.4142 9.25 23.75 9.58579 23.75 10C23.75 10.4142 23.4142 10.75 23 10.75H20.75V13C20.75 13.4142 20.4142 13.75 20 13.75C19.5858 13.75 19.25 13.4142 19.25 13ZM12.25 6C12.25 4.20507 10.7949 2.75 9 2.75C7.20507 2.75 5.75 4.20507 5.75 6C5.75 7.79493 7.20507 9.25 9 9.25C10.7949 9.25 12.25 7.79493 12.25 6ZM16.75 18.7998C16.75 20.9813 14.9813 22.75 12.7998 22.75H5.2002C3.01867 22.75 1.25 20.9813 1.25 18.7998C1.25011 15.7348 3.73478 13.2501 6.7998 13.25H11.2002C14.2652 13.2501 16.7499 15.7348 16.75 18.7998ZM13.75 6C13.75 8.62335 11.6234 10.75 9 10.75C6.37665 10.75 4.25 8.62335 4.25 6C4.25 3.37665 6.37665 1.25 9 1.25C11.6234 1.25 13.75 3.37665 13.75 6Z" fill="#111827"/>
</svg>
